<?xml version="1.0" encoding="UTF-8"?>
<svg xmlns="http://www.w3.org/2000/svg" xmlns:xlink="http://www.w3.org/1999/xlink" width="95px" height="50px" viewBox="0 0 95 50" version="1.1">
<g id="surface1">
<rect x="0" y="0" width="95" height="50" style="fill:rgb(69.803922%,13.333333%,20.392157%);fill-opacity:1;stroke:none;"/>
<path style="fill-rule:nonzero;fill:rgb(0%,0%,0%);fill-opacity:1;stroke-width:300;stroke-linecap:butt;stroke-linejoin:miter;stroke:rgb(100%,100%,100%);stroke-opacity:1;stroke-miterlimit:4;" d="M 0 450.023438 L 7410 450.023438 M 7410 1049.953125 L 0 1049.953125 M 0 1649.882812 L 7410 1649.882812 M 7410 2250.117188 L 0 2250.117188 M 0 2850.046875 L 7410 2850.046875 M 7410 3449.976562 L 0 3449.976562 " transform="matrix(0.0128205,0,0,0.0128205,0,0)"/>
<path style=" stroke:none;fill-rule:nonzero;fill:rgb(23.529412%,23.137255%,43.137255%);fill-opacity:1;" d="M 0 0 L 38 0 L 38 26.921875 L 0 26.921875 Z M 0 0 "/>
<path style=" stroke:none;fill-rule:nonzero;fill:rgb(100%,100%,100%);fill-opacity:1;" d="M 3.167969 1.152344 L 4.070312 3.9375 L 1.703125 2.21875 L 4.628906 2.21875 L 2.261719 3.9375 Z M 3.167969 1.152344 "/>
<path style=" stroke:none;fill-rule:nonzero;fill:rgb(100%,100%,100%);fill-opacity:1;" d="M 3.167969 6.539062 L 4.070312 9.320312 L 1.703125 7.601562 L 4.628906 7.601562 L 2.261719 9.320312 Z M 3.167969 6.539062 "/>
<path style=" stroke:none;fill-rule:nonzero;fill:rgb(100%,100%,100%);fill-opacity:1;" d="M 3.167969 11.921875 L 4.070312 14.707031 L 1.703125 12.984375 L 4.628906 12.984375 L 2.261719 14.707031 Z M 3.167969 11.921875 "/>
<path style=" stroke:none;fill-rule:nonzero;fill:rgb(100%,100%,100%);fill-opacity:1;" d="M 3.167969 17.308594 L 4.070312 20.089844 L 1.703125 18.371094 L 4.628906 18.371094 L 2.261719 20.089844 Z M 3.167969 17.308594 "/>
<path style=" stroke:none;fill-rule:nonzero;fill:rgb(100%,100%,100%);fill-opacity:1;" d="M 3.167969 22.691406 L 4.070312 25.476562 L 1.703125 23.753906 L 4.628906 23.753906 L 2.261719 25.476562 Z M 3.167969 22.691406 "/>
<path style=" stroke:none;fill-rule:nonzero;fill:rgb(100%,100%,100%);fill-opacity:1;" d="M 6.332031 3.847656 L 7.238281 6.628906 L 4.871094 4.910156 L 7.796875 4.910156 L 5.429688 6.628906 Z M 6.332031 3.847656 "/>
<path style=" stroke:none;fill-rule:nonzero;fill:rgb(100%,100%,100%);fill-opacity:1;" d="M 6.332031 9.230469 L 7.238281 12.015625 L 4.871094 10.292969 L 7.796875 10.292969 L 5.429688 12.015625 Z M 6.332031 9.230469 "/>
<path style=" stroke:none;fill-rule:nonzero;fill:rgb(100%,100%,100%);fill-opacity:1;" d="M 6.332031 14.617188 L 7.238281 17.398438 L 4.871094 15.679688 L 7.796875 15.679688 L 5.429688 17.398438 Z M 6.332031 14.617188 "/>
<path style=" stroke:none;fill-rule:nonzero;fill:rgb(100%,100%,100%);fill-opacity:1;" d="M 6.332031 20 L 7.238281 22.78125 L 4.871094 21.0625 L 7.796875 21.0625 L 5.429688 22.78125 Z M 6.332031 20 "/>
<path style=" stroke:none;fill-rule:nonzero;fill:rgb(100%,100%,100%);fill-opacity:1;" d="M 9.5 1.152344 L 10.402344 3.9375 L 8.035156 2.21875 L 10.964844 2.21875 L 8.597656 3.9375 Z M 9.5 1.152344 "/>
<path style=" stroke:none;fill-rule:nonzero;fill:rgb(100%,100%,100%);fill-opacity:1;" d="M 9.5 6.539062 L 10.402344 9.320312 L 8.035156 7.601562 L 10.964844 7.601562 L 8.597656 9.320312 Z M 9.5 6.539062 "/>
<path style=" stroke:none;fill-rule:nonzero;fill:rgb(100%,100%,100%);fill-opacity:1;" d="M 9.5 11.921875 L 10.402344 14.707031 L 8.035156 12.984375 L 10.964844 12.984375 L 8.597656 14.707031 Z M 9.5 11.921875 "/>
<path style=" stroke:none;fill-rule:nonzero;fill:rgb(100%,100%,100%);fill-opacity:1;" d="M 9.5 17.308594 L 10.402344 20.089844 L 8.035156 18.371094 L 10.964844 18.371094 L 8.597656 20.089844 Z M 9.5 17.308594 "/>
<path style=" stroke:none;fill-rule:nonzero;fill:rgb(100%,100%,100%);fill-opacity:1;" d="M 9.5 22.691406 L 10.402344 25.476562 L 8.035156 23.753906 L 10.964844 23.753906 L 8.597656 25.476562 Z M 9.5 22.691406 "/>
<path style=" stroke:none;fill-rule:nonzero;fill:rgb(100%,100%,100%);fill-opacity:1;" d="M 12.667969 3.847656 L 13.570312 6.628906 L 11.203125 4.910156 L 14.128906 4.910156 L 11.761719 6.628906 Z M 12.667969 3.847656 "/>
<path style=" stroke:none;fill-rule:nonzero;fill:rgb(100%,100%,100%);fill-opacity:1;" d="M 12.667969 9.230469 L 13.570312 12.015625 L 11.203125 10.292969 L 14.128906 10.292969 L 11.761719 12.015625 Z M 12.667969 9.230469 "/>
<path style=" stroke:none;fill-rule:nonzero;fill:rgb(100%,100%,100%);fill-opacity:1;" d="M 12.667969 14.617188 L 13.570312 17.398438 L 11.203125 15.679688 L 14.128906 15.679688 L 11.761719 17.398438 Z M 12.667969 14.617188 "/>
<path style=" stroke:none;fill-rule:nonzero;fill:rgb(100%,100%,100%);fill-opacity:1;" d="M 12.667969 20 L 13.570312 22.78125 L 11.203125 21.0625 L 14.128906 21.0625 L 11.761719 22.78125 Z M 12.667969 20 "/>
<path style=" stroke:none;fill-rule:nonzero;fill:rgb(100%,100%,100%);fill-opacity:1;" d="M 15.832031 1.152344 L 16.738281 3.9375 L 14.371094 2.21875 L 17.296875 2.21875 L 14.929688 3.9375 Z M 15.832031 1.152344 "/>
<path style=" stroke:none;fill-rule:nonzero;fill:rgb(100%,100%,100%);fill-opacity:1;" d="M 15.832031 6.539062 L 16.738281 9.320312 L 14.371094 7.601562 L 17.296875 7.601562 L 14.929688 9.320312 Z M 15.832031 6.539062 "/>
<path style=" stroke:none;fill-rule:nonzero;fill:rgb(100%,100%,100%);fill-opacity:1;" d="M 15.832031 11.921875 L 16.738281 14.707031 L 14.371094 12.984375 L 17.296875 12.984375 L 14.929688 14.707031 Z M 15.832031 11.921875 "/>
<path style=" stroke:none;fill-rule:nonzero;fill:rgb(100%,100%,100%);fill-opacity:1;" d="M 15.832031 17.308594 L 16.738281 20.089844 L 14.371094 18.371094 L 17.296875 18.371094 L 14.929688 20.089844 Z M 15.832031 17.308594 "/>
<path style=" stroke:none;fill-rule:nonzero;fill:rgb(100%,100%,100%);fill-opacity:1;" d="M 15.832031 22.691406 L 16.738281 25.476562 L 14.371094 23.753906 L 17.296875 23.753906 L 14.929688 25.476562 Z M 15.832031 22.691406 "/>
<path style=" stroke:none;fill-rule:nonzero;fill:rgb(100%,100%,100%);fill-opacity:1;" d="M 19 3.847656 L 19.902344 6.628906 L 17.535156 4.910156 L 20.464844 4.910156 L 18.097656 6.628906 Z M 19 3.847656 "/>
<path style=" stroke:none;fill-rule:nonzero;fill:rgb(100%,100%,100%);fill-opacity:1;" d="M 19 9.230469 L 19.902344 12.015625 L 17.535156 10.292969 L 20.464844 10.292969 L 18.097656 12.015625 Z M 19 9.230469 "/>
<path style=" stroke:none;fill-rule:nonzero;fill:rgb(100%,100%,100%);fill-opacity:1;" d="M 19 14.617188 L 19.902344 17.398438 L 17.535156 15.679688 L 20.464844 15.679688 L 18.097656 17.398438 Z M 19 14.617188 "/>
<path style=" stroke:none;fill-rule:nonzero;fill:rgb(100%,100%,100%);fill-opacity:1;" d="M 19 20 L 19.902344 22.78125 L 17.535156 21.0625 L 20.464844 21.0625 L 18.097656 22.78125 Z M 19 20 "/>
<path style=" stroke:none;fill-rule:nonzero;fill:rgb(100%,100%,100%);fill-opacity:1;" d="M 22.167969 1.152344 L 23.070312 3.9375 L 20.703125 2.21875 L 23.628906 2.21875 L 21.261719 3.9375 Z M 22.167969 1.152344 "/>
<path style=" stroke:none;fill-rule:nonzero;fill:rgb(100%,100%,100%);fill-opacity:1;" d="M 22.167969 6.539062 L 23.070312 9.320312 L 20.703125 7.601562 L 23.628906 7.601562 L 21.261719 9.320312 Z M 22.167969 6.539062 "/>
<path style=" stroke:none;fill-rule:nonzero;fill:rgb(100%,100%,100%);fill-opacity:1;" d="M 22.167969 11.921875 L 23.070312 14.707031 L 20.703125 12.984375 L 23.628906 12.984375 L 21.261719 14.707031 Z M 22.167969 11.921875 "/>
<path style=" stroke:none;fill-rule:nonzero;fill:rgb(100%,100%,100%);fill-opacity:1;" d="M 22.167969 17.308594 L 23.070312 20.089844 L 20.703125 18.371094 L 23.628906 18.371094 L 21.261719 20.089844 Z M 22.167969 17.308594 "/>
<path style=" stroke:none;fill-rule:nonzero;fill:rgb(100%,100%,100%);fill-opacity:1;" d="M 22.167969 22.691406 L 23.070312 25.476562 L 20.703125 23.753906 L 23.628906 23.753906 L 21.261719 25.476562 Z M 22.167969 22.691406 "/>
<path style=" stroke:none;fill-rule:nonzero;fill:rgb(100%,100%,100%);fill-opacity:1;" d="M 25.332031 3.847656 L 26.238281 6.628906 L 23.871094 4.910156 L 26.796875 4.910156 L 24.429688 6.628906 Z M 25.332031 3.847656 "/>
<path style=" stroke:none;fill-rule:nonzero;fill:rgb(100%,100%,100%);fill-opacity:1;" d="M 25.332031 9.230469 L 26.238281 12.015625 L 23.871094 10.292969 L 26.796875 10.292969 L 24.429688 12.015625 Z M 25.332031 9.230469 "/>
<path style=" stroke:none;fill-rule:nonzero;fill:rgb(100%,100%,100%);fill-opacity:1;" d="M 25.332031 14.617188 L 26.238281 17.398438 L 23.871094 15.679688 L 26.796875 15.679688 L 24.429688 17.398438 Z M 25.332031 14.617188 "/>
<path style=" stroke:none;fill-rule:nonzero;fill:rgb(100%,100%,100%);fill-opacity:1;" d="M 25.332031 20 L 26.238281 22.78125 L 23.871094 21.0625 L 26.796875 21.0625 L 24.429688 22.78125 Z M 25.332031 20 "/>
<path style=" stroke:none;fill-rule:nonzero;fill:rgb(100%,100%,100%);fill-opacity:1;" d="M 28.5 1.152344 L 29.402344 3.9375 L 27.035156 2.21875 L 29.964844 2.21875 L 27.597656 3.9375 Z M 28.5 1.152344 "/>
<path style=" stroke:none;fill-rule:nonzero;fill:rgb(100%,100%,100%);fill-opacity:1;" d="M 28.5 6.539062 L 29.402344 9.320312 L 27.035156 7.601562 L 29.964844 7.601562 L 27.597656 9.320312 Z M 28.5 6.539062 "/>
<path style=" stroke:none;fill-rule:nonzero;fill:rgb(100%,100%,100%);fill-opacity:1;" d="M 28.5 11.921875 L 29.402344 14.707031 L 27.035156 12.984375 L 29.964844 12.984375 L 27.597656 14.707031 Z M 28.5 11.921875 "/>
<path style=" stroke:none;fill-rule:nonzero;fill:rgb(100%,100%,100%);fill-opacity:1;" d="M 28.5 17.308594 L 29.402344 20.089844 L 27.035156 18.371094 L 29.964844 18.371094 L 27.597656 20.089844 Z M 28.5 17.308594 "/>
<path style=" stroke:none;fill-rule:nonzero;fill:rgb(100%,100%,100%);fill-opacity:1;" d="M 28.5 22.691406 L 29.402344 25.476562 L 27.035156 23.753906 L 29.964844 23.753906 L 27.597656 25.476562 Z M 28.5 22.691406 "/>
<path style=" stroke:none;fill-rule:nonzero;fill:rgb(100%,100%,100%);fill-opacity:1;" d="M 31.667969 3.847656 L 32.570312 6.628906 L 30.203125 4.910156 L 33.128906 4.910156 L 30.761719 6.628906 Z M 31.667969 3.847656 "/>
<path style=" stroke:none;fill-rule:nonzero;fill:rgb(100%,100%,100%);fill-opacity:1;" d="M 31.667969 9.230469 L 32.570312 12.015625 L 30.203125 10.292969 L 33.128906 10.292969 L 30.761719 12.015625 Z M 31.667969 9.230469 "/>
<path style=" stroke:none;fill-rule:nonzero;fill:rgb(100%,100%,100%);fill-opacity:1;" d="M 31.667969 14.617188 L 32.570312 17.398438 L 30.203125 15.679688 L 33.128906 15.679688 L 30.761719 17.398438 Z M 31.667969 14.617188 "/>
<path style=" stroke:none;fill-rule:nonzero;fill:rgb(100%,100%,100%);fill-opacity:1;" d="M 31.667969 20 L 32.570312 22.78125 L 30.203125 21.0625 L 33.128906 21.0625 L 30.761719 22.78125 Z M 31.667969 20 "/>
<path style=" stroke:none;fill-rule:nonzero;fill:rgb(100%,100%,100%);fill-opacity:1;" d="M 34.832031 1.152344 L 35.738281 3.9375 L 33.371094 2.21875 L 36.296875 2.21875 L 33.929688 3.9375 Z M 34.832031 1.152344 "/>
<path style=" stroke:none;fill-rule:nonzero;fill:rgb(100%,100%,100%);fill-opacity:1;" d="M 34.832031 6.539062 L 35.738281 9.320312 L 33.371094 7.601562 L 36.296875 7.601562 L 33.929688 9.320312 Z M 34.832031 6.539062 "/>
<path style=" stroke:none;fill-rule:nonzero;fill:rgb(100%,100%,100%);fill-opacity:1;" d="M 34.832031 11.921875 L 35.738281 14.707031 L 33.371094 12.984375 L 36.296875 12.984375 L 33.929688 14.707031 Z M 34.832031 11.921875 "/>
<path style=" stroke:none;fill-rule:nonzero;fill:rgb(100%,100%,100%);fill-opacity:1;" d="M 34.832031 17.308594 L 35.738281 20.089844 L 33.371094 18.371094 L 36.296875 18.371094 L 33.929688 20.089844 Z M 34.832031 17.308594 "/>
<path style=" stroke:none;fill-rule:nonzero;fill:rgb(100%,100%,100%);fill-opacity:1;" d="M 34.832031 22.691406 L 35.738281 25.476562 L 33.371094 23.753906 L 36.296875 23.753906 L 33.929688 25.476562 Z M 34.832031 22.691406 "/>
</g>
</svg>
